<?xml version="1.0" standalone="no"?>
<!DOCTYPE svg PUBLIC "-//W3C//DTD SVG 20010904//EN"
 "http://www.w3.org/TR/2001/REC-SVG-20010904/DTD/svg10.dtd">
<svg version="1.0" xmlns="http://www.w3.org/2000/svg"
 width="600.000000pt" height="600.000000pt" viewBox="0 0 600.000000 600.000000"
 preserveAspectRatio="xMidYMid meet">
<metadata>
Created by potrace 1.14, written by Peter Selinger 2001-2017
</metadata>
<g transform="translate(0.000000,600.000000) scale(0.100000,-0.100000)"
fill="#000000" stroke="none">
<path d="M2838 5645 c-2 -1 -29 -5 -60 -9 -165 -17 -423 -97 -583 -181 -188
-98 -327 -187 -419 -267 -63 -55 -256 -245 -256 -253 0 -2 -14 -19 -31 -37
-32 -34 -106 -128 -124 -157 -6 -9 -28 -43 -49 -76 -22 -33 -63 -109 -93 -170
-29 -60 -63 -128 -75 -150 -12 -22 -27 -50 -32 -62 -6 -13 -14 -23 -18 -23 -5
0 -8 -4 -8 -10 0 -11 -62 -103 -72 -108 -5 -2 -8 -10 -8 -17 0 -7 -3 -15 -8
-17 -4 -1 -25 -30 -47 -63 -21 -33 -41 -62 -44 -65 -3 -3 -12 -15 -18 -27 -7
-13 -19 -33 -25 -45 -7 -13 -15 -25 -18 -28 -14 -14 -60 -110 -53 -110 4 0 2
-4 -5 -9 -7 -4 -14 -14 -16 -22 -1 -8 -10 -31 -19 -52 -9 -20 -16 -38 -16 -40
0 -1 -5 -15 -11 -32 -7 -16 -14 -39 -16 -50 -20 -90 -25 -140 -21 -202 6 -74
3 -80 -35 -74 -5 0 -8 -3 -8 -9 0 -5 16 -10 35 -10 19 0 35 -4 35 -9 0 -4 12
-21 26 -36 17 -18 23 -33 18 -44 -4 -9 -6 -19 -6 -23 1 -5 -2 -8 -7 -8 -4 0
-20 -26 -34 -57 -48 -107 -54 -125 -61 -180 -1 -13 -5 -25 -8 -28 -5 -5 -1
-125 5 -155 10 -48 66 -145 118 -203 27 -30 143 -116 150 -111 13 8 30 -24 25
-50 -8 -47 -56 -140 -88 -173 -38 -39 -32 -51 13 -27 44 22 104 87 142 153
l30 53 15 -38 c24 -67 46 -105 80 -140 45 -47 79 -62 163 -74 39 -6 76 -13 83
-17 19 -12 38 -15 134 -15 54 0 92 -5 92 -10 0 -6 62 -72 138 -147 102 -102
132 -137 117 -138 -70 -2 -139 -39 -212 -112 -31 -30 -65 -57 -77 -58 -56 -8
-129 -26 -149 -36 -90 -48 -160 -126 -274 -308 -88 -139 -98 -159 -111 -209
-19 -78 40 -172 141 -224 l55 -28 -13 -38 c-7 -21 -16 -55 -19 -76 -4 -20 -8
-46 -11 -58 -2 -12 -7 -43 -9 -71 -3 -27 -9 -72 -15 -100 -5 -27 -12 -70 -16
-95 -3 -25 -8 -52 -10 -60 -2 -8 -7 -28 -10 -45 -2 -16 -7 -41 -10 -54 -9 -45
-38 -126 -62 -170 -12 -24 -23 -46 -23 -47 0 -2 833 -4 1851 -4 1542 0 1850 2
1846 13 -6 15 -67 233 -72 257 -2 8 -16 60 -30 115 -15 55 -26 118 -25 140 7
132 4 183 -20 255 -13 41 -32 90 -42 108 -10 18 -18 38 -18 45 0 7 -5 18 -12
25 -6 6 -13 18 -14 27 -1 8 -12 28 -23 44 -12 16 -21 33 -21 38 0 11 -84 135
-135 200 -22 28 -63 67 -92 86 -45 30 -59 34 -98 31 -25 -3 -56 -9 -69 -13
-27 -11 -41 -4 -50 27 -4 12 -12 22 -17 22 -5 0 -9 4 -9 9 0 12 -61 105 -72
109 -4 2 -8 10 -8 18 0 8 -5 14 -11 14 -5 0 -7 5 -4 11 5 7 11 6 18 -4 16 -19
54 -40 107 -61 72 -29 150 -42 150 -25 0 5 -13 9 -29 9 -16 0 -34 7 -41 15 -7
9 -15 13 -18 10 -5 -4 -55 45 -92 91 -49 61 -82 204 -47 204 15 0 151 67 202
100 31 19 31 19 55 -3 24 -21 89 -57 105 -57 4 0 2 7 -5 15 -10 12 -10 19 -2
27 7 7 12 8 12 3 0 -6 3 -6 8 0 6 9 64 39 132 68 14 6 29 13 33 15 18 9 -44
-90 -70 -112 -19 -17 -22 -23 -10 -23 9 0 14 3 12 7 -2 3 11 12 28 20 18 7 38
19 44 26 7 7 16 14 20 16 5 1 34 31 66 66 120 132 197 282 238 467 7 33 13 66
12 73 -2 26 75 8 117 -28 18 -16 45 -34 59 -42 14 -7 28 -15 31 -18 6 -6 186
-64 246 -80 36 -9 102 -18 168 -23 33 -3 28 18 -7 31 -68 24 -215 188 -258
286 -5 12 -13 28 -18 36 -25 41 -78 193 -101 290 -8 35 -14 146 -16 310 -1
140 -5 279 -8 308 -10 99 -16 144 -21 152 -3 4 -7 23 -9 41 -6 43 -21 132 -31
179 -3 14 -7 39 -10 55 -11 75 -42 217 -54 248 -6 15 -9 27 -6 27 5 0 -39 130
-53 156 -6 11 -12 33 -15 49 -11 66 -80 205 -162 331 -36 54 -65 102 -65 106
0 4 -4 8 -10 8 -5 0 -10 7 -10 15 0 8 -4 15 -8 15 -4 0 -15 13 -25 29 -9 16
-32 46 -49 67 -52 60 -205 214 -213 214 -4 0 -18 11 -31 26 -13 14 -24 21 -24
17 0 -4 -4 -3 -8 2 -16 23 -326 175 -355 175 -7 0 -17 4 -22 8 -6 5 -30 14
-55 21 -25 7 -54 17 -65 21 -27 11 -76 19 -155 26 -36 3 -83 12 -105 19 -22 7
-65 16 -95 20 -30 3 -71 10 -91 14 -33 7 -443 13 -451 6z m-1842 -1792 c-4
-17 -9 -39 -21 -108 -3 -16 -8 -55 -10 -85 -10 -107 -13 -125 -24 -152 -13
-35 -159 -180 -175 -175 -17 6 -11 147 6 147 4 0 7 3 6 8 -5 13 34 105 69 164
18 31 33 61 33 68 0 6 5 8 10 5 6 -3 10 3 10 15 0 11 7 23 15 26 8 4 15 12 15
20 0 8 5 14 11 14 5 0 7 5 4 10 -3 6 -2 10 3 10 5 0 15 11 22 25 15 29 34 34
26 8z m-159 -558 c0 -16 -22 -21 -32 -6 -3 5 3 12 12 14 10 3 18 5 19 6 0 0 1
-6 1 -14z m-29 -421 c-4 -3 5 -36 19 -72 13 -37 29 -80 36 -97 6 -16 17 -36
24 -43 7 -7 13 -17 13 -20 0 -4 10 -18 23 -32 13 -14 26 -36 30 -49 5 -21 3
-22 -21 -16 -57 14 -106 50 -132 98 -22 40 -26 58 -23 110 2 34 5 71 7 82 3
11 5 26 5 33 1 6 6 12 13 12 6 0 9 -3 6 -6z m4062 -300 c20 -22 21 -26 6 -23
-19 4 -56 49 -40 49 5 0 20 -12 34 -26z m-3426 -214 c19 -19 15 -37 -10 -34
-22 2 -84 39 -84 50 0 9 83 -5 94 -16z m-51 -114 c26 -4 56 -2 66 3 16 9 25 1
65 -59 51 -77 54 -85 29 -75 -10 4 -29 9 -42 10 -33 5 -81 26 -81 36 0 5 -6 9
-14 9 -7 0 -31 21 -52 47 -21 26 -34 44 -29 41 6 -3 31 -9 58 -12z m3072 -113
c-19 -77 -78 -162 -141 -204 -46 -30 -64 -26 -102 23 -12 14 -8 21 25 52 21
20 43 36 50 36 6 0 18 6 25 13 7 7 24 17 38 23 14 6 41 27 60 46 43 43 54 46
45 11z"/>
<path d="M785 2150 c-17 -8 -16 -8 8 -7 15 1 27 5 27 9 0 10 -9 9 -35 -2z"/>
</g>
</svg>
